# xmcd CD database file
#
# Track frame offsets:
#	150
#	15516
#	27890
#	40889
#	53423
#	63322
#	74117
#	87226
#	99600
#	111939
#	123599
#	136069
#	147673
#	159967
#	173146
#	186452
#	198660
#	210192
#	222724
#	235398
#	247246
#	258800
#	269218
#	280550
#	293126
#
# Disc length: 4067 seconds
#
# Revision: 1
# Processed by: cddbd v1.5.2PL0 Copyright (c) Steve Scherf et al.
# Submitted via: CDex 1.70beta1
#
DISCID=850fe119
DTITLE=Hank Williams - The King Of Hillbilly Music - CD 1
DYEAR=2005
DGENRE=Country
TTITLE0=When Hank Williams Met Jimmie Rodgers
TTITLE1=I Saw The Light
TTITLE2=Calling You
TTITLE3=Six More Miles (To The Graveyard)
TTITLE4=Honky Tonk Blues
TTITLE5=Let's Turn Back The Years
TTITLE6=Wedding Bells
TTITLE7=Move It On Over
TTITLE8=Honky Tonkin'
TTITLE9=I'm Satisfied With You
TTITLE10=Rootie Tootie
TTITLE11=A Mansion On The Hill
TTITLE12=Lovesick Blues
TTITLE13=Mind Your Own Business
TTITLE14=You're Gonna Change (Or I'm Gonna Leave)
TTITLE15=Lost Highway
TTITLE16=My Bucket's Got A Hole In It
TTITLE17=I'm So Lonesome I Could Cry
TTITLE18=I Just Don't Like This Kind Of Living
TTITLE19=Long Gone Lonesome Blues
TTITLE20=My Son Calls Another Man "Daddy"
TTITLE21=Thank God
TTITLE22=The Angel Of Death
TTITLE23=I Don't Care If Tomorrow Never Comes
TTITLE24=My Love For You Has Turned To Hate
EXTD=YEAR: 2005
EXTT0=Riley Crabtree 1953
EXTT1=(Williams) 1948
EXTT2=(Williams) 1948
EXTT3=(Williams) 1947
EXTT4=(Williams) 1951
EXTT5=(Williams) 1952
EXTT6=(Boone) 1947
EXTT7=(Williams) 1947
EXTT8=(Williams) 1947
EXTT9=(Rose) 1947
EXTT10=(Rose) 1947
EXTT11=(Rose/Williams) 1948
EXTT12=(Friend/Mills) 1949
EXTT13=(Williams) 1949
EXTT14=(Williams) 1949
EXTT15=(Payne) 1949
EXTT16=(Williams) 1949
EXTT17=(Williams) 1949
EXTT18=(Williams) 1949
EXTT19=(Williams) 1950
EXTT20=(Williams/House) 1950
EXTT21=(Williams) 1951
EXTT22=(Williams) 1949
EXTT23=(Williams) 1951
EXTT24=(Williams) 1950
PLAYORDER=
